HIERARCHY
ROOT pelvis
{
  OFFSET 0 100 0
  CHANNELS 6 Xposition Yposition Zposition Zrotation Xrotation Yrotation
  JOINT pelvis_right_femur
  {
    OFFSET -10.78128 -3.44521 -0.5502486
    CHANNELS 3 Zrotation Xrotation Yrotation
    JOINT right_femur_tibia
    {
      OFFSET -0.8047443 -44.0398 -0.1307829
      CHANNELS 3 Zrotation Xrotation Yrotation
      JOINT right_tibia_foot
      {
        OFFSET 3.006224 -47.83518 -5
        CHANNELS 3 Zrotation Xrotation Yrotation
        End Site
        {
          OFFSET 0 -5 15
        }
      }
    }
  }
  JOINT pelvis_left_femur
  {
    OFFSET 10.78128 -3.44521 -0.5502486
    CHANNELS 3 Zrotation Xrotation Yrotation
    JOINT left_femur_tibia
    {
      OFFSET 0.8047443 -44.0398 -0.1307829
      CHANNELS 3 Zrotation Xrotation Yrotation
      JOINT left_tibia_foot
      {
        OFFSET -4.370144 -48.10324 -4.275266
        CHANNELS 3 Zrotation Xrotation Yrotation
        End Site
        {
          OFFSET 0 -5 15
        }
      }
    }
  }
  JOINT pelvis_spine1
  {
    OFFSET 0 6.468898 -3.129235
    CHANNELS 3 Zrotation Xrotation Yrotation
    JOINT spine1
    {
      OFFSET 0 23.15396 4.99043
      CHANNELS 3 Zrotation Xrotation Yrotation
      JOINT spine2
      {
        OFFSET 0 20.79997 -5.064912
        CHANNELS 3 Zrotation Xrotation Yrotation
        JOINT neck
        {
          OFFSET 0 14.38658 9.616178
          CHANNELS 3 Zrotation Xrotation Yrotation
          End Site
          {
            OFFSET 0 20 0
          }
        }
      }
      JOINT right_manubrium
      {
        OFFSET -5.722621 16.35077 3.967754
        CHANNELS 3 Zrotation Xrotation Yrotation
        JOINT right_clavicle
        {
          OFFSET -13.16364 1.694482 -4.693211
          CHANNELS 3 Zrotation Xrotation Yrotation
          JOINT right_humerus
          {
            OFFSET -28.5034 -0.3100689 -2.792744
            CHANNELS 3 Zrotation Xrotation Yrotation
            JOINT right_radius
            {
              OFFSET -25.15693 0.02248979 -1.271978
              CHANNELS 3 Zrotation Xrotation Yrotation
              End Site
              {
                OFFSET -15 0 0
              }
            }
          }
        }
      }
      JOINT left_manubrium
      {
        OFFSET 5.722621 16.35077 3.967754
        CHANNELS 3 Zrotation Xrotation Yrotation
        JOINT left_clavicle
        {
          OFFSET 13.16364 1.694482 -4.693211
          CHANNELS 3 Zrotation Xrotation Yrotation
          JOINT left_humerus
          {
            OFFSET 29.39168 -1.063119 -2.237045
            CHANNELS 3 Zrotation Xrotation Yrotation
            JOINT left_radius
            {
              OFFSET 24.59957 -0.9528479 0.9047498
              CHANNELS 3 Zrotation Xrotation Yrotation
              End Site
              {
                OFFSET 15 -0 -0
              }
            }
          }
        }
      }
    }
  }
}
MOTION
Frames: 17
Frame Time: 0.0416666666667
1593.786 99.1169 2584.939 6.630555 -2.193784 57.34795 0.5953988 17.1198 5.120638 -0 33.64266 -0 3.689531 -9.423952 -2.630218 -2.435555 -21.08802 -6.168098 -0 21.01337 -0 -5.960029 -8.773251 19.02551 -1.995607 -0.6069622 8.653391 -1.655363 9.191466 -2.660816 2.291626 21.79005 5.603337 2.217812 -17.30994 7.58763 0.5061411 -21.26319 10.28729 81.91601 23.0004 -7.038551 -0 0 24.34515 -26.96146 12.41664 14.52917 4.368524 -14.2615 -2.566811 -93.86419 24.0391 26.64746 0 0 -9.489548 -3.389642 5.459366 18.05445
1600.411 99.83561 2587.696 6.677618 -1.507132 57.81751 -0.1971631 14.11801 5.10842 -0 42.73874 -0 4.143006 -4.987827 -3.109706 -4.067925 -17.94561 -7.107592 -0 23.03385 -0 -5.257704 -9.466089 18.16594 -2.832407 -1.050346 8.556054 -1.766338 9.754121 -3.184472 2.018848 21.50666 6.10211 2.685862 -17.224 7.54463 2.100457 -20.47934 10.57687 82.11107 25.74017 -8.456983 -0 0 23.18496 -27.16094 13.69327 14.1935 4.081255 -14.89839 -2.856221 -92.92437 24.09625 26.14902 0 0 -10.48732 -3.142764 5.637273 17.90372
1606.734 100.9069 2590.262 7.421118 -1.536151 58.77259 -0.5236238 9.845586 4.901504 -0 50.68699 -0 4.318107 -1.793968 -4.264564 -5.248368 -13.41008 -7.987562 -0 23.82024 -0 -5.094689 -10.68017 17.59462 -3.179043 -0.8227467 7.842896 -1.874672 10.03914 -3.571182 1.909583 21.68707 6.39923 2.745642 -16.89005 7.753242 2.85439 -19.5742 10.62147 83.29898 26.67742 -9.899515 -0 0 21.75197 -26.7114 14.3942 13.60656 3.928218 -15.28025 -3.365932 -91.86049 24.46084 24.56149 0 0 -11.01161 -2.914221 5.921809 17.6987
1612.664 102.026 2592.635 8.291262 -1.987599 60.03097 -0.4994944 4.470081 4.502512 -0 55.0577 -0 4.082503 -0.2618523 -5.693452 -5.803894 -8.000782 -8.579268 -0 22.80498 -0 -5.148468 -12.21146 17.13443 -3.098553 -0.2244616 6.702057 -1.809805 10.05579 -4.011692 1.917616 22.11726 6.502964 2.446289 -16.56883 8.143626 2.747544 -18.68189 10.44912 85.09455 26.19596 -11.38751 -0 0 20.06436 -25.88284 14.51769 13.02578 3.953545 -15.69357 -3.905532 -90.44587 24.86461 21.85776 0 0 -11.66467 -2.470136 6.239977 17.1976
1618.249 102.9266 2594.869 8.680288 -2.406289 61.36567 -0.3108719 -1.712062 3.964283 -0 54.91543 -0 3.4674 -0.02258649 -6.927443 -5.843362 -2.496392 -8.774603 -0 20.45516 -0 -5.044203 -13.81108 16.56266 -2.853906 0.3680886 5.447186 -1.458535 9.956579 -4.711932 1.889101 22.48164 6.574445 2.063498 -16.46523 8.531816 2.304642 -17.84042 10.25577 86.87037 25.61695 -13.04297 -0 0 18.14044 -25.0739 14.44998 12.61543 4.161584 -16.4887 -4.329653 -88.58709 24.9406 18.35296 0 0 -13.09439 -1.614457 6.540083 16.11266
1623.606 103.3961 2597.042 8.437086 -2.575069 62.61422 -0.1198024 -8.119856 3.319713 -0 50.66742 -0 2.672316 -0.7410291 -7.781632 -5.609208 2.553941 -8.699661 -0 17.54755 -0 -4.756714 -15.35358 15.82807 -2.635153 0.7707086 4.31258 -0.8745465 9.799798 -5.633524 1.774871 22.64459 6.703126 1.789738 -16.54002 8.809915 1.89946 -17.02992 10.13506 88.2816 25.60666 -14.88046 -0 0 16.13933 -24.48954 14.47701 12.38651 4.545776 -17.66212 -4.595705 -86.48113 24.6204 14.49905 0 0 -15.43095 -0.5074996 6.789403 14.59167
1628.856 103.3024 2599.238 7.804763 -2.484113 63.70468 -0.06442465 -14.07315 2.562475 -0 43.49007 -0 1.895717 -2.219474 -8.318521 -5.330706 6.98998 -8.592152 -0 14.86022 -0 -4.540891 -16.83167 15.00283 -2.516754 0.9618092 3.40526 -0.2327802 9.528044 -6.552113 1.660931 22.66306 6.847853 1.667714 -16.60074 8.975007 1.602188 -16.17544 10.02287 89.30669 26.03914 -16.77392 -0 0 14.22338 -24.08346 14.64357 12.20606 5.095041 -18.95085 -4.715603 -84.38624 24.15705 10.60883 0 0 -18.4128 0.512644 7.03944 13.05203
1634.108 102.6224 2601.536 7.11714 -2.203992 64.62513 -0.20302 -19.07033 1.715997 -0 34.87644 -0 1.222807 -4.098807 -8.681094 -5.139365 10.89097 -8.623117 -0 13.06381 -0 -4.663964 -18.25262 14.18716 -2.497415 0.9790453 2.743224 0.2866665 9.095524 -7.247934 1.668293 22.64975 6.908304 1.664792 -16.50575 9.060931 1.34181 -15.21773 9.814006 90.08291 26.49999 -18.57106 -0 0 12.453 -23.66724 14.84887 11.87113 5.775129 -20.09966 -4.719933 -82.47512 23.86217 6.865929 0 0 -21.64377 1.228219 7.404257 11.82957
1639.461 101.4613 2604.009 6.565643 -1.827235 65.39304 -0.4157907 -22.88008 0.9462778 -0 26.32146 -0 0.6429993 -5.748769 -8.975634 -5.045564 14.3345 -8.801326 -0 12.7115 -0 -5.192302 -19.51167 13.47868 -2.533609 0.8560561 2.304721 0.6027042 8.567953 -7.643395 1.851478 22.65185 6.808898 1.741182 -16.29347 9.078894 1.082228 -14.19594 9.490007 90.7623 26.7109 -20.19218 -0 0 10.79978 -23.0381 14.98175 11.21448 6.503468 -21.00353 -4.642846 -80.87874 23.86108 3.517564 0 0 -24.703 1.674243 7.947022 10.98842
1645.015 100.0524 2606.72 6.149087 -1.463245 66.0358 -0.3860843 -25.41008 0.5869107 -0 19.17595 -0 0.1533713 -6.460336 -9.229943 -4.968777 17.22963 -8.991404 -0 14.23887 -0 -5.939596 -20.299 12.97691 -2.554537 0.6093249 2.053141 0.7642316 8.125083 -7.816702 2.15545 22.61865 6.547356 1.866432 -16.16595 9.00965 0.8945158 -13.2665 9.162183 91.43217 26.68611 -21.62046 -0 0 9.231837 -22.09874 15.01366 10.22025 7.13482 -21.668 -4.516655 -79.77162 24.01651 1.000878 0 0 -27.13511 2.068669 8.578444 10.35053
1650.858 98.71641 2609.702 5.792051 -1.25328 66.56869 0.2390574 -26.52052 0.9664502 -0 14.507 -0 -0.1653254 -5.85268 -9.410644 -4.792579 19.3246 -9.006553 -0 17.86513 -0 -6.600464 -20.12559 12.76355 -2.462319 0.2594025 1.932029 0.8973028 7.975663 -7.915451 2.441257 22.46888 6.196846 1.994262 -16.33873 8.837536 0.8938782 -12.6358 9.011004 92.08573 26.59749 -22.81763 -0 0 7.794291 -20.96469 15.01595 9.097412 7.481888 -22.0963 -4.380289 -79.34378 24.01065 -0.197781 0 0 -28.48176 2.624741 9.06068 9.669235
1657.026 97.77136 2612.949 5.539046 -1.359179 66.96627 1.540354 -25.97834 2.09953 -0 12.8145 -0 -0.2014452 -4.321174 -9.48707 -4.428421 20.3821 -8.742772 -0 23.49362 -0 -7.020813 -18.56442 12.85131 -2.155738 -0.1376647 1.866076 1.098362 8.213038 -8.02785 2.581091 22.21896 5.85313 2.041618 -16.822 8.591791 1.106082 -12.41107 9.147648 92.62537 26.48695 -23.65497 -0 0 6.617689 -19.95038 15.08869 8.190341 7.392707 -22.22771 -4.28101 -79.62653 23.57494 0.04128409 0 0 -28.46664 3.345366 9.17292 8.848342
1663.464 97.43902 2616.403 5.610019 -1.871699 67.14739 3.171354 -23.66372 3.584004 -0 13.74972 -0 0.02102662 -3.034533 -9.462737 -3.887852 20.29957 -8.295522 -0 30.8334 -0 -7.363907 -15.65192 13.18873 -1.615115 -0.4697821 1.822173 1.350032 8.715261 -8.093327 2.569128 22.04345 5.561558 1.939517 -17.33633 8.347824 1.425908 -12.48538 9.499471 92.88889 26.19351 -23.94423 -0 0 5.849652 -19.29919 15.22926 7.695738 6.856441 -21.97994 -4.232313 -80.40275 22.81922 1.244308 0 0 -27.20967 3.949201 8.943652 8.078422
1669.997 97.80608 2619.949 6.149604 -2.669289 67.01012 4.619239 -19.81991 4.917637 -0 16.09924 -0 0.2411556 -3.089649 -9.291475 -3.32291 18.86346 -7.903555 -0 39.51883 -0 -7.913938 -12.08997 13.72767 -0.9812478 -0.5791277 1.918443 1.542557 9.239358 -7.943251 2.514286 22.13762 5.318362 1.752748 -17.55759 8.155742 1.754998 -12.66457 9.879864 92.70537 25.69868 -23.57717 -0 0 5.621483 -18.90332 15.2666 7.490977 6.049242 -21.36543 -4.170205 -81.47228 22.33357 2.868337 0 0 -25.19274 4.033163 8.642379 7.804003
1676.365 98.79698 2623.429 6.969303 -3.397421 66.5127 5.528727 -15.00383 5.814134 -0 18.15133 -0 0.1295326 -4.588429 -8.848953 -2.947908 15.49981 -7.670696 -0 48.66931 -0 -8.667544 -8.94544 14.43001 -0.5143475 -0.3397615 2.4153 1.570489 9.634142 -7.455915 2.5039 22.51133 5.140892 1.689692 -17.4396 7.975562 2.102989 -12.92473 10.18955 91.97441 25.37025 -22.61602 -0 0 6.056424 -18.52837 15.00215 7.372583 5.267945 -20.57742 -4.004034 -82.89532 22.65928 4.905371 0 0 -22.99018 3.422603 8.459446 8.400164
1682.358 100.1416 2626.713 7.740752 -3.710774 65.73029 5.772951 -9.770386 6.246755 -0 18.65802 -0 -0.365581 -6.75831 -8.10542 -2.833316 9.826734 -7.422317 -0 56.37445 -0 -9.203048 -7.05244 15.30199 -0.4385026 0.2181842 3.453974 1.394976 9.901163 -6.659094 2.536381 22.99301 5.060067 1.880357 -17.18181 7.751535 2.446055 -13.41431 10.46178 90.72875 25.53324 -21.15531 -0 0 7.182222 -18.25774 14.43355 7.357005 4.769036 -19.87198 -3.718266 -84.74599 23.6 7.530191 0 0 -20.97936 2.433001 8.330505 9.648649
1687.941 101.4488 2629.746 8.302392 -3.570123 64.82471 5.45996 -4.421201 6.351842 -0 17.72407 -0 -0.906052 -8.757711 -7.156902 -2.759943 2.347027 -6.914883 -0 60.18869 -0 -9.141566 -6.55747 16.39449 -0.7384487 0.8970287 4.842587 1.028756 10.0882 -5.689966 2.557665 23.37918 5.074975 2.231326 -16.97048 7.495789 2.632209 -14.2914 10.74912 89.09024 25.98718 -19.16614 -0 0 8.987508 -18.4694 13.76566 7.644124 4.627283 -19.32001 -3.401866 -86.8437 24.43807 10.63263 0 0 -19.21856 1.536029 8.0939 10.92984
